<?xml version="1.0" standalone="no"?>
<!DOCTYPE svg PUBLIC "-//W3C//DTD SVG 20010904//EN"
 "http://www.w3.org/TR/2001/REC-SVG-20010904/DTD/svg10.dtd">
<svg version="1.0" xmlns="http://www.w3.org/2000/svg"
 width="1536.000000pt" height="1024.000000pt" viewBox="0 0 1536.000000 1024.000000"
 preserveAspectRatio="xMidYMid meet">

<g transform="translate(0.000000,1024.000000) scale(0.100000,-0.100000)"
fill="#000000" stroke="none">
<path d="M8181 7690 c-76 -28 -180 -91 -245 -151 -67 -61 -136 -163 -136 -201
0 -24 4 -28 29 -28 72 0 135 -80 128 -166 -5 -71 -36 -116 -122 -174 -41 -27
-76 -59 -80 -70 -10 -30 4 -100 50 -266 24 -83 53 -198 66 -255 12 -57 27
-110 32 -116 7 -10 53 -13 167 -13 l158 0 6 -31 c10 -52 1 -56 -186 -89 -41
-8 -65 -16 -62 -22 11 -17 145 -76 224 -97 104 -29 186 -27 323 8 155 41 247
78 247 101 0 32 -68 225 -82 232 -7 4 -30 10 -50 13 -70 11 -108 60 -121 155
l-5 36 106 23 c59 12 256 58 437 101 182 44 464 111 628 149 165 39 306 76
314 82 25 21 44 68 45 113 1 59 -40 181 -72 216 -48 52 -73 50 -394 -25 -304
-70 -781 -183 -996 -235 -69 -17 -128 -30 -132 -30 -15 0 -8 92 8 127 9 19 33
46 53 60 50 37 61 52 61 87 0 37 -192 443 -222 469 -27 23 -107 22 -177 -3z
m-33 -1042 c19 -19 14 -46 -9 -53 -26 -9 -65 26 -56 49 7 19 48 21 65 4z"/>
<path d="M7213 7010 l-42 -127 33 -111 c27 -90 41 -120 76 -162 23 -28 44 -49
46 -47 2 2 -1 19 -6 38 -5 19 -16 102 -25 184 -32 309 -37 350 -38 351 -1 1
-21 -56 -44 -126z"/>
<path d="M6804 7087 c3 -10 13 -46 22 -80 8 -34 29 -102 46 -152 16 -49 32
-96 34 -103 3 -9 9 -10 21 -3 48 27 48 23 -19 157 -62 124 -116 218 -104 181z"/>
<path d="M6536 6907 c-38 -27 2 -95 42 -71 24 16 28 55 6 71 -10 7 -21 13 -24
13 -3 0 -14 -6 -24 -13z"/>
<path d="M7550 6821 c0 -11 -11 -66 -25 -123 -34 -142 -34 -225 2 -280 l28
-41 7 39 c11 63 9 424 -2 424 -5 0 -10 -9 -10 -19z"/>
<path d="M6050 6595 c-24 -24 -42 -46 -39 -48 2 -2 33 -28 69 -58 75 -64 136
-109 145 -109 4 0 15 10 24 22 18 21 17 23 -9 64 -45 71 -124 173 -135 174 -6
0 -31 -20 -55 -45z"/>
<path d="M6549 6473 c-15 -6 -32 -20 -38 -32 -8 -13 -11 -178 -11 -508 l0
-488 248 1 c136 1 385 2 555 3 l307 1 0 326 0 327 -100 101 c-54 56 -143 141
-197 189 l-98 89 -319 1 c-224 2 -327 -1 -347 -10z m581 -248 c0 -79 5 -144
11 -159 21 -44 63 -56 208 -56 l131 0 -2 -272 -3 -273 -37 1 c-21 0 -213 1
-428 2 l-390 2 0 445 0 445 255 0 255 0 0 -135z m216 -10 l99 -95 -102 0 -103
0 0 95 c0 52 2 95 4 95 1 0 48 -43 102 -95z"/>
<path d="M6734 6096 c-3 -13 -4 -37 -2 -52 l3 -29 133 -3 132 -3 0 49 0 49
-67 6 c-38 4 -96 7 -130 7 -58 0 -63 -2 -69 -24z"/>
<path d="M6737 5893 c-2 -5 -4 -26 -3 -48 l2 -40 302 -3 302 -2 0 50 0 50
-299 0 c-165 0 -302 -3 -304 -7z"/>
<path d="M6742 5648 l3 -53 45 -3 c25 -2 159 -1 298 3 l252 7 0 49 0 49 -301
0 -300 0 3 -52z"/>
<path d="M8870 6456 c-18 -22 -5 -48 22 -44 17 2 23 10 23 28 0 29 -26 38 -45
16z"/>
<path d="M7774 6175 c-9 -23 4 -47 23 -43 22 4 30 38 11 49 -19 13 -28 11 -34
-6z"/>
<path d="M9170 6086 c-209 -92 -476 -225 -549 -275 -59 -41 -171 -152 -171
-170 0 -7 15 -4 38 7 20 11 150 56 287 102 374 123 345 110 378 179 17 39 56
90 108 145 45 48 80 86 78 85 -2 0 -78 -33 -169 -73z"/>
<path d="M6056 6082 c69 -59 226 -162 236 -156 4 3 8 16 8 29 0 27 -24 42
-164 101 -84 35 -97 39 -80 26z"/>
<path d="M7775 6045 c-3 -8 -7 -22 -10 -30 -6 -19 22 -46 40 -38 21 7 30 50
15 68 -16 19 -39 19 -45 0z"/>
<path d="M5891 5926 c-7 -8 -11 -27 -9 -43 6 -51 88 -41 88 11 0 42 -53 63
-79 32z"/>
<path d="M7931 5875 c-8 -37 -11 -68 -8 -71 3 -3 11 21 17 52 7 32 15 64 17
71 3 7 1 13 -4 13 -5 0 -15 -29 -22 -65z"/>
<path d="M8211 5749 c-107 -74 -170 -126 -242 -202 -54 -56 -97 -102 -96 -103
3 -3 196 63 254 87 47 19 57 29 99 97 26 43 67 108 91 145 25 38 43 70 41 72
-2 2 -68 -41 -147 -96z"/>
<path d="M7797 5743 c-9 -8 -8 -96 1 -147 l7 -39 27 39 c14 21 37 61 49 87 20
41 21 49 9 57 -17 11 -83 13 -93 3z"/>
<path d="M6020 5649 c-25 -4 -67 -8 -93 -8 -80 -1 -43 -18 55 -25 51 -3 126
-9 166 -12 l72 -6 0 31 0 31 -77 -1 c-43 -1 -98 -5 -123 -10z"/>
<path d="M8980 5599 c-237 -10 -331 -22 -401 -48 -53 -20 -145 -78 -137 -86 2
-2 89 0 193 5 172 8 219 14 495 69 168 32 314 61 325 64 32 7 -271 5 -475 -4z"/>
<path d="M5650 5375 l0 -35 643 -2 c353 -2 992 -2 1420 0 l777 2 0 35 0 35
-1420 0 -1420 0 0 -35z"/>
<path d="M8862 5330 c-23 -29 -42 -57 -42 -63 0 -10 90 -8 540 12 159 7 155 9
-65 36 -118 15 -299 45 -366 61 -22 5 -32 -1 -67 -46z"/>
<path d="M5087 5192 c-14 -15 -17 -40 -17 -125 0 -98 2 -107 22 -121 20 -14
85 -16 508 -16 504 0 1027 -12 1285 -30 296 -21 467 -60 632 -145 l108 -56
-969 5 -968 4 190 -63 c318 -106 484 -196 608 -328 84 -89 116 -156 122 -257
6 -100 -11 -173 -56 -250 -110 -189 -343 -348 -602 -412 -47 -12 -91 -26 -97
-31 -9 -7 -13 -44 -13 -122 0 -108 1 -113 23 -119 12 -3 189 -6 393 -6 286 0
374 3 381 13 5 6 20 41 32 76 36 101 89 180 175 265 66 63 100 87 181 126 141
69 205 84 355 84 142 0 232 -20 357 -80 175 -84 326 -257 379 -434 l15 -50
404 0 c304 0 406 3 411 12 11 17 5 220 -7 234 -5 6 -28 15 -52 18 -68 11 -238
71 -329 117 -233 116 -363 271 -362 430 2 146 112 286 287 364 37 17 67 36 67
44 0 7 -11 50 -25 95 -52 174 -60 237 -59 461 0 116 5 231 11 257 6 26 8 50 5
53 -3 3 -764 5 -1692 5 -1622 0 -1688 -1 -1703 -18z"/>
<path d="M8644 5083 c-4 -21 -8 -110 -8 -198 0 -181 23 -333 71 -471 l28 -79
120 3 c267 7 489 85 702 248 81 62 204 189 268 276 51 69 134 228 128 246 -4
9 -144 12 -653 12 l-649 0 -7 -37z"/>
<path d="M7233 3495 c-73 -16 -184 -72 -243 -122 -69 -60 -130 -150 -154 -230
l-7 -23 554 0 c304 0 557 3 560 6 4 4 -10 39 -30 78 -46 88 -155 199 -235 239
-126 63 -300 83 -445 52z"/>
</g>
</svg>
